<svg xmlns="http://www.w3.org/2000/svg" width="352.81" height="35" viewBox="0 0 352.81 35"><rect class="svg__rect" x="0" y="0" width="115.79" height="35" fill="#292929"/><rect class="svg__rect" x="113.79" y="0" width="239.01999999999998" height="35" fill="#E46C17"/><path class="svg__text" d="M15.70 22L14.22 22L14.22 13.47L17.48 13.47Q18.91 13.47 19.75 14.21Q20.59 14.96 20.59 16.18L20.59 16.18Q20.59 17.44 19.77 18.13Q18.95 18.83 17.46 18.83L17.46 18.83L15.70 18.83L15.70 22ZM15.70 14.66L15.70 17.64L17.48 17.64Q18.27 17.64 18.69 17.27Q19.10 16.90 19.10 16.19L19.10 16.19Q19.10 15.50 18.68 15.09Q18.26 14.68 17.52 14.66L17.52 14.66L15.70 14.66ZM24.63 18.13L24.63 18.13L24.63 17.46Q24.63 15.53 25.56 14.44Q26.48 13.35 28.14 13.35L28.14 13.35Q29.56 13.35 30.40 14.05Q31.24 14.76 31.41 16.08L31.41 16.08L29.96 16.08Q29.71 14.54 28.17 14.54L28.17 14.54Q27.17 14.54 26.65 15.26Q26.14 15.98 26.12 17.37L26.12 17.37L26.12 18.02Q26.12 19.40 26.70 20.17Q27.28 20.93 28.32 20.93L28.32 20.93Q29.46 20.93 29.94 20.42L29.94 20.42L29.94 18.75L28.18 18.75L28.18 17.62L31.41 17.62L31.41 20.89Q30.95 21.50 30.13 21.81Q29.31 22.12 28.27 22.12L28.27 22.12Q27.20 22.12 26.37 21.63Q25.54 21.14 25.10 20.24Q24.65 19.33 24.63 18.13ZM37.51 22L36.03 22L36.03 13.47L39.30 13.47Q40.73 13.47 41.57 14.21Q42.41 14.96 42.41 16.18L42.41 16.18Q42.41 17.44 41.58 18.13Q40.76 18.83 39.28 18.83L39.28 18.83L37.51 18.83L37.51 22ZM37.51 14.66L37.51 17.64L39.30 17.64Q40.09 17.64 40.50 17.27Q40.92 16.90 40.92 16.19L40.92 16.19Q40.92 15.50 40.50 15.09Q40.07 14.68 39.34 14.66L39.34 14.66L37.51 14.66ZM54.15 22L52.67 22L52.67 13.47L54.15 13.47L54.15 17.47L54.97 16.46L57.47 13.47L59.26 13.47L56.09 17.25L59.44 22L57.68 22L55.12 18.31L54.15 19.34L54.15 22ZM68.80 22L63.22 22L63.22 13.47L68.76 13.47L68.76 14.66L64.70 14.66L64.70 17.02L68.21 17.02L68.21 18.19L64.70 18.19L64.70 20.82L68.80 20.82L68.80 22ZM75.03 18.86L72.17 13.47L73.81 13.47L75.78 17.51L77.74 13.47L79.38 13.47L76.52 18.86L76.52 22L75.03 22L75.03 18.86ZM90.83 22L89.36 22L89.36 13.47L90.83 13.47L90.83 22ZM98.10 22L95.64 22L95.64 13.47L98.16 13.47Q99.30 13.47 100.17 13.97Q101.05 14.48 101.53 15.40Q102.01 16.33 102.01 17.52L102.01 17.52L102.01 17.95Q102.01 19.16 101.52 20.08Q101.04 21.00 100.15 21.50Q99.25 22 98.10 22L98.10 22ZM97.13 14.66L97.13 20.82L98.09 20.82Q99.26 20.82 99.88 20.09Q100.51 19.36 100.52 17.99L100.52 17.99L100.52 17.52Q100.52 16.13 99.92 15.40Q99.31 14.66 98.16 14.66L98.16 14.66L97.13 14.66Z" fill="#FFFFFF"/><path class="svg__text" d="M127.55 17.80L127.55 17.80Q127.55 16.45 128.02 15.46Q128.49 14.46 129.33 13.95Q130.18 13.43 131.25 13.43L131.25 13.43Q132.32 13.43 133.16 13.95Q134.00 14.46 134.48 15.46Q134.95 16.45 134.95 17.80L134.95 17.80Q134.95 19.15 134.48 20.15Q134.00 21.14 133.16 21.65Q132.33 22.17 131.25 22.17L131.25 22.17Q130.18 22.17 129.33 21.65Q128.49 21.14 128.02 20.15Q127.55 19.16 127.55 17.80ZM129.93 17.80L129.93 17.80Q129.93 19.06 130.29 19.64Q130.64 20.22 131.25 20.22L131.25 20.22Q131.86 20.22 132.21 19.64Q132.57 19.06 132.57 17.80L132.57 17.80Q132.57 16.54 132.21 15.96Q131.86 15.38 131.25 15.38L131.25 15.38Q130.64 15.38 130.29 15.96Q129.93 16.54 129.93 17.80ZM141.53 22L138.82 22L141.88 17.75L138.95 13.60L141.62 13.60L143.31 16.02L144.96 13.60L147.53 13.60L144.60 17.66L147.72 22L144.99 22L143.25 19.40L141.53 22ZM155.98 22L152.01 22L152.01 13.60L155.98 13.60Q157.36 13.60 158.43 14.12Q159.50 14.63 160.08 15.58Q160.67 16.53 160.67 17.80L160.67 17.80Q160.67 19.07 160.08 20.02Q159.50 20.97 158.43 21.48Q157.36 22 155.98 22L155.98 22ZM154.39 15.50L154.39 20.10L155.89 20.10Q156.96 20.10 157.62 19.49Q158.27 18.88 158.27 17.80L158.27 17.80Q158.27 16.72 157.62 16.11Q156.96 15.50 155.89 15.50L155.89 15.50L154.39 15.50ZM172.15 22L165.40 22L165.40 13.60L171.99 13.60L171.99 15.44L167.76 15.44L167.76 16.85L171.49 16.85L171.49 18.63L167.76 18.63L167.76 20.17L172.15 20.17L172.15 22ZM176.52 17.80L176.52 17.80Q176.52 16.54 177.12 15.54Q177.72 14.55 178.77 13.99Q179.82 13.43 181.14 13.43L181.14 13.43Q182.29 13.43 183.22 13.84Q184.14 14.25 184.76 15.02L184.76 15.02L183.24 16.39Q182.43 15.40 181.26 15.40L181.26 15.40Q180.58 15.40 180.04 15.70Q179.51 16 179.22 16.54Q178.92 17.09 178.92 17.80L178.92 17.80Q178.92 18.51 179.22 19.05Q179.51 19.60 180.04 19.90Q180.58 20.20 181.26 20.20L181.26 20.20Q182.43 20.20 183.24 19.22L183.24 19.22L184.76 20.58Q184.15 21.35 183.22 21.76Q182.29 22.17 181.14 22.17L181.14 22.17Q179.82 22.17 178.77 21.61Q177.72 21.05 177.12 20.05Q176.52 19.06 176.52 17.80ZM188.65 16.30L188.65 16.30Q188.65 15.45 189.08 14.80Q189.52 14.14 190.27 13.79Q191.02 13.43 191.93 13.43L191.93 13.43Q193.74 13.43 194.79 14.50Q195.84 15.57 195.84 17.57L195.84 17.57Q195.84 19.01 195.28 20.05Q194.72 21.09 193.70 21.63Q192.69 22.17 191.36 22.17L191.36 22.17Q190.65 22.17 190.00 22.01Q189.35 21.84 188.90 21.55L188.90 21.55L189.76 19.85Q190.37 20.28 191.31 20.28L191.31 20.28Q192.21 20.28 192.77 19.79Q193.32 19.29 193.42 18.34L193.42 18.34Q192.70 18.95 191.53 18.95L191.53 18.95Q190.74 18.95 190.08 18.62Q189.43 18.29 189.04 17.68Q188.65 17.08 188.65 16.30ZM190.95 16.19L190.95 16.19Q190.95 16.67 191.27 16.96Q191.59 17.25 192.10 17.25L192.10 17.25Q192.62 17.25 192.94 16.96Q193.26 16.66 193.26 16.18L193.26 16.18Q193.26 15.71 192.95 15.42Q192.63 15.12 192.09 15.12L192.09 15.12Q191.59 15.12 191.27 15.41Q190.95 15.70 190.95 16.19ZM199.92 16.30L199.92 16.30Q199.92 15.45 200.36 14.80Q200.79 14.14 201.54 13.79Q202.29 13.43 203.21 13.43L203.21 13.43Q205.02 13.43 206.06 14.50Q207.11 15.57 207.11 17.57L207.11 17.57Q207.11 19.01 206.55 20.05Q205.99 21.09 204.98 21.63Q203.96 22.17 202.63 22.17L202.63 22.17Q201.92 22.17 201.28 22.01Q200.63 21.84 200.17 21.55L200.17 21.55L201.03 19.85Q201.64 20.28 202.58 20.28L202.58 20.28Q203.48 20.28 204.04 19.79Q204.60 19.29 204.69 18.34L204.69 18.34Q203.97 18.95 202.81 18.95L202.81 18.95Q202.02 18.95 201.36 18.62Q200.70 18.29 200.31 17.68Q199.92 17.08 199.92 16.30ZM202.22 16.19L202.22 16.19Q202.22 16.67 202.54 16.96Q202.86 17.25 203.38 17.25L203.38 17.25Q203.89 17.25 204.21 16.96Q204.54 16.66 204.54 16.18L204.54 16.18Q204.54 15.71 204.22 15.42Q203.90 15.12 203.36 15.12L203.36 15.12Q202.86 15.12 202.54 15.41Q202.22 15.70 202.22 16.19ZM211.41 17.80L211.41 17.80Q211.41 16.54 212.01 15.54Q212.60 14.55 213.66 13.99Q214.71 13.43 216.03 13.43L216.03 13.43Q217.18 13.43 218.10 13.84Q219.03 14.25 219.64 15.02L219.64 15.02L218.13 16.39Q217.32 15.40 216.15 15.40L216.15 15.40Q215.46 15.40 214.93 15.70Q214.40 16 214.10 16.54Q213.81 17.09 213.81 17.80L213.81 17.80Q213.81 18.51 214.10 19.05Q214.40 19.60 214.93 19.90Q215.46 20.20 216.15 20.20L216.15 20.20Q217.32 20.20 218.13 19.22L218.13 19.22L219.64 20.58Q219.03 21.35 218.11 21.76Q217.18 22.17 216.03 22.17L216.03 22.17Q214.71 22.17 213.66 21.61Q212.60 21.05 212.01 20.05Q211.41 19.06 211.41 17.80ZM223.75 17.80L223.75 17.80Q223.75 16.54 224.35 15.54Q224.94 14.55 226.00 13.99Q227.05 13.43 228.37 13.43L228.37 13.43Q229.52 13.43 230.44 13.84Q231.37 14.25 231.98 15.02L231.98 15.02L230.47 16.39Q229.66 15.40 228.49 15.40L228.49 15.40Q227.80 15.40 227.27 15.70Q226.74 16 226.44 16.54Q226.15 17.09 226.15 17.80L226.15 17.80Q226.15 18.51 226.44 19.05Q226.74 19.60 227.27 19.90Q227.80 20.20 228.49 20.20L228.49 20.20Q229.66 20.20 230.47 19.22L230.47 19.22L231.98 20.58Q231.37 21.35 230.45 21.76Q229.52 22.17 228.37 22.17L228.37 22.17Q227.05 22.17 226.00 21.61Q224.94 21.05 224.35 20.05Q223.75 19.06 223.75 17.80ZM236.09 17.80L236.09 17.80Q236.09 16.45 236.56 15.46Q237.03 14.46 237.87 13.95Q238.71 13.43 239.79 13.43L239.79 13.43Q240.86 13.43 241.70 13.95Q242.54 14.46 243.02 15.46Q243.49 16.45 243.49 17.80L243.49 17.80Q243.49 19.15 243.02 20.15Q242.54 21.14 241.70 21.65Q240.86 22.17 239.79 22.17L239.79 22.17Q238.71 22.17 237.87 21.65Q237.03 21.14 236.56 20.15Q236.09 19.16 236.09 17.80ZM238.47 17.80L238.47 17.80Q238.47 19.06 238.83 19.64Q239.18 20.22 239.79 20.22L239.79 20.22Q240.40 20.22 240.75 19.64Q241.10 19.06 241.10 17.80L241.10 17.80Q241.10 16.54 240.75 15.96Q240.40 15.38 239.79 15.38L239.79 15.38Q239.18 15.38 238.83 15.96Q238.47 16.54 238.47 17.80ZM252.19 22L248.22 22L248.22 13.60L252.19 13.60Q253.57 13.60 254.64 14.12Q255.71 14.63 256.30 15.58Q256.88 16.53 256.88 17.80L256.88 17.80Q256.88 19.07 256.30 20.02Q255.71 20.97 254.64 21.48Q253.57 22 252.19 22L252.19 22ZM250.60 15.50L250.60 20.10L252.10 20.10Q253.18 20.10 253.83 19.49Q254.48 18.88 254.48 17.80L254.48 17.80Q254.48 16.72 253.83 16.11Q253.18 15.50 252.10 15.50L252.10 15.50L250.60 15.50ZM268.36 22L261.61 22L261.61 13.60L268.20 13.60L268.20 15.44L263.97 15.44L263.97 16.85L267.70 16.85L267.70 18.63L263.97 18.63L263.97 20.17L268.36 20.17L268.36 22ZM272.73 17.80L272.73 17.80Q272.73 16.45 273.21 15.46Q273.68 14.46 274.52 13.95Q275.36 13.43 276.44 13.43L276.44 13.43Q277.50 13.43 278.34 13.95Q279.18 14.46 279.66 15.46Q280.13 16.45 280.13 17.80L280.13 17.80Q280.13 19.15 279.66 20.15Q279.18 21.14 278.35 21.65Q277.51 22.17 276.44 22.17L276.44 22.17Q275.36 22.17 274.52 21.65Q273.68 21.14 273.21 20.15Q272.73 19.16 272.73 17.80ZM275.12 17.80L275.12 17.80Q275.12 19.06 275.47 19.64Q275.83 20.22 276.44 20.22L276.44 20.22Q277.04 20.22 277.39 19.64Q277.75 19.06 277.75 17.80L277.75 17.80Q277.75 16.54 277.39 15.96Q277.04 15.38 276.44 15.38L276.44 15.38Q275.83 15.38 275.47 15.96Q275.12 16.54 275.12 17.80ZM286.33 16.78L284.30 16.78L284.30 13.60L291.26 13.60L291.26 15.09L288.30 22L285.71 22L288.54 15.48L286.33 15.48L286.33 16.78ZM297.40 16.78L295.37 16.78L295.37 13.60L302.33 13.60L302.33 15.09L299.36 22L296.77 22L299.60 15.48L297.40 15.48L297.40 16.78ZM306.52 19.53L306.52 19.53Q306.52 18.89 306.83 18.40Q307.15 17.91 307.72 17.57L307.72 17.57Q307.29 17.27 307.06 16.84Q306.82 16.41 306.82 15.88L306.82 15.88Q306.82 15.15 307.24 14.59Q307.66 14.03 308.42 13.73Q309.18 13.43 310.17 13.43L310.17 13.43Q311.15 13.43 311.92 13.73Q312.68 14.03 313.10 14.59Q313.52 15.15 313.52 15.88L313.52 15.88Q313.52 16.41 313.28 16.84Q313.05 17.27 312.62 17.57L312.62 17.57Q313.19 17.91 313.51 18.40Q313.82 18.89 313.82 19.53L313.82 19.53Q313.82 20.32 313.36 20.92Q312.91 21.52 312.08 21.84Q311.25 22.17 310.17 22.17L310.17 22.17Q309.09 22.17 308.26 21.84Q307.43 21.52 306.98 20.92Q306.52 20.32 306.52 19.53ZM308.91 19.46L308.91 19.46Q308.91 19.94 309.25 20.22Q309.60 20.50 310.17 20.50L310.17 20.50Q310.74 20.50 311.09 20.22Q311.43 19.94 311.43 19.46L311.43 19.46Q311.43 18.98 311.09 18.70Q310.74 18.41 310.17 18.41L310.17 18.41Q309.60 18.41 309.25 18.70Q308.91 18.98 308.91 19.46ZM309.17 15.99L309.17 15.99Q309.17 16.40 309.44 16.63Q309.71 16.86 310.17 16.86L310.17 16.86Q310.63 16.86 310.90 16.63Q311.18 16.40 311.18 15.99L311.18 15.99Q311.18 15.57 310.90 15.33Q310.63 15.10 310.17 15.10L310.17 15.10Q309.72 15.10 309.45 15.33Q309.17 15.57 309.17 15.99ZM322.49 22L318.51 22L318.51 13.60L322.49 13.60Q323.87 13.60 324.93 14.12Q326.00 14.63 326.59 15.58Q327.18 16.53 327.18 17.80L327.18 17.80Q327.18 19.07 326.59 20.02Q326.00 20.97 324.93 21.48Q323.87 22 322.49 22L322.49 22ZM320.89 15.50L320.89 20.10L322.39 20.10Q323.47 20.10 324.12 19.49Q324.78 18.88 324.78 17.80L324.78 17.80Q324.78 16.72 324.12 16.11Q323.47 15.50 322.39 15.50L322.39 15.50L320.89 15.50ZM335.88 22L331.91 22L331.91 13.60L335.88 13.60Q337.26 13.60 338.33 14.12Q339.40 14.63 339.98 15.58Q340.57 16.53 340.57 17.80L340.57 17.80Q340.57 19.07 339.98 20.02Q339.40 20.97 338.33 21.48Q337.26 22 335.88 22L335.88 22ZM334.29 15.50L334.29 20.10L335.79 20.10Q336.86 20.10 337.52 19.49Q338.17 18.88 338.17 17.80L338.17 17.80Q338.17 16.72 337.52 16.11Q336.86 15.50 335.79 15.50L335.79 15.50L334.29 15.50Z" fill="#FFFFFF" x="126.79"/></svg>